<svg width="800" height="600" xmlns="http://www.w3.org/2000/svg">

 <g>
  <title>Layer 1</title>
  <g transform="rotate(179.95 400 300)">
   <g>
    <g>
     <path d="m652.87482,292.45863l-160,-160c-4.167,-4.167 -10.917,-4.167 -15.083,0c-4.167,4.167 -4.167,10.917 0,15.083l141.792,141.792l-464.917,0c-5.896,0 -10.667,4.771 -10.667,10.667s4.771,10.667 10.667,10.667l464.917,0l-141.792,141.791c-4.167,4.167 -4.167,10.917 0,15.083c2.083,2.083 4.813,3.125 7.542,3.125c2.729,0 5.458,-1.042 7.542,-3.125l160,-160c4.166,-4.166 4.166,-10.916 -0.001,-15.083z"/>
    </g>
   </g>
   <g/>
   <g/>
   <g/>
   <g/>
   <g/>
   <g/>
   <g/>
   <g/>
   <g/>
   <g/>
   <g/>
   <g/>
   <g/>
   <g/>
   <g/>
  </g>
 </g>
</svg>